<svg width="800" height="600" xmlns="http://www.w3.org/2000/svg" viewBox="0 0 800 600">
  <defs>
    <linearGradient id="grad" x1="0%" y1="0%" x2="100%" y2="100%">
      <stop offset="0%" style="stop-color:#2C2C2C;stop-opacity:1" />
      <stop offset="100%" style="stop-color:#1A2332;stop-opacity:0.9" />
    </linearGradient>
  </defs>
  <rect width="800" height="600" fill="url(#grad)"/>
  <g transform="translate(400, 260)" fill="#C5A572" opacity="0.4">
    <g transform="translate(-40, -40) scale(3.5)">
      <path d="M19 3H5c-1.1 0-2 .9-2 2v14c0 1.1.9 2 2 2h14c1.1 0 2-.9 2-2V5c0-1.1-.9-2-2-2zM9 17H7v-7h2v7zm4 0h-2V7h2v10zm4 0h-2v-4h2v4z"/>
    </g>
  </g>
  <text x="400" y="550" font-family="Arial, sans-serif" font-size="28" font-weight="bold" fill="#FFFFFF" text-anchor="middle" opacity="0.9">
    Premium Moisturizer
  </text>
</svg>